<svg xmlns="http://www.w3.org/2000/svg" xmlns:xlink="http://www.w3.org/1999/xlink" width="480" zoomAndPan="magnify" viewBox="0 0 360 359.999987" height="480" preserveAspectRatio="xMidYMid meet" version="1.0"><defs><g/><clipPath id="648c775b38"><path d="M 139 127 L 321 127 L 321 301 L 139 301 Z M 139 127 " clip-rule="nonzero"/></clipPath><clipPath id="b22bb387f6"><path d="M 120.480469 252.007812 L 280.710938 109.402344 L 339.546875 175.507812 L 179.320312 318.117188 Z M 120.480469 252.007812 " clip-rule="nonzero"/></clipPath><clipPath id="13116fe465"><path d="M 120.480469 252.007812 L 280.710938 109.402344 L 339.546875 175.507812 L 179.320312 318.117188 Z M 120.480469 252.007812 " clip-rule="nonzero"/></clipPath><clipPath id="e853865d5a"><path d="M 120.511719 251.980469 L 280.742188 109.371094 L 339.753906 175.675781 L 179.527344 318.285156 Z M 120.511719 251.980469 " clip-rule="nonzero"/></clipPath><clipPath id="e3f2254c36"><rect x="0" width="115" y="0" height="59"/></clipPath><clipPath id="f3ebf6b4d4"><rect x="0" width="186" y="0" height="102"/></clipPath><clipPath id="3960049c3d"><rect x="0" width="18" y="0" height="22"/></clipPath></defs><g clip-path="url(#648c775b38)"><g clip-path="url(#b22bb387f6)"><g clip-path="url(#13116fe465)"><g clip-path="url(#e853865d5a)"><path fill="#e1a730" d="M 313.578125 160.773438 C 315.253906 165.96875 315.703125 171.554688 315.039062 177.007812 C 314.378906 182.476562 312.457031 187.785156 309.542969 192.496094 C 308.085938 194.851562 306.375 197.0625 304.429688 199.058594 C 303.925781 199.542969 303.441406 200.046875 302.925781 200.515625 L 301.351562 201.886719 C 301.097656 202.125 300.816406 202.335938 300.535156 202.542969 L 299.695312 203.171875 L 298.859375 203.804688 C 298.570312 204.007812 298.273438 204.191406 297.980469 204.386719 C 295.664062 205.984375 293.132812 207.289062 290.535156 208.460938 C 287.941406 209.644531 285.214844 210.5625 282.457031 211.390625 L 280.375 211.972656 L 278.269531 212.484375 C 277.566406 212.664062 276.859375 212.804688 276.148438 212.945312 C 275.4375 213.085938 274.730469 213.25 274.015625 213.367188 C 271.160156 213.886719 268.277344 214.277344 265.378906 214.59375 C 259.578125 215.183594 253.722656 215.375 247.859375 215.234375 C 243.3125 215.140625 238.757812 214.875 234.222656 214.375 L 234.175781 213.539062 L 233.160156 211.140625 C 233.695312 211.675781 234.105469 212.558594 234.164062 213.328125 C 234.1875 213.703125 234.167969 213.394531 234.175781 213.464844 L 234.171875 213.398438 L 234.160156 213.144531 L 234.144531 212.617188 L 234.117188 211.558594 L 234.097656 209.417969 C 234.089844 207.988281 234.105469 206.550781 234.140625 205.117188 C 234.207031 202.246094 234.34375 199.371094 234.550781 196.507812 C 234.984375 190.777344 235.6875 185.078125 236.753906 179.476562 C 237.269531 176.671875 237.925781 173.910156 238.636719 171.167969 C 239.382812 168.441406 240.222656 165.753906 241.199219 163.132812 C 243.179688 157.914062 245.691406 152.929688 248.980469 148.6875 C 249.1875 148.421875 249.378906 148.140625 249.59375 147.886719 L 250.90625 146.378906 L 251.230469 146.003906 L 251.582031 145.652344 L 252.988281 144.261719 C 253.476562 143.8125 253.996094 143.386719 254.492188 142.945312 C 256.546875 141.242188 258.792969 139.78125 261.167969 138.574219 C 263.546875 137.363281 266.058594 136.429688 268.644531 135.753906 C 271.230469 135.078125 273.898438 134.695312 276.582031 134.609375 C 281.941406 134.4375 287.363281 135.398438 292.324219 137.507812 C 297.296875 139.589844 301.8125 142.761719 305.480469 146.769531 C 309.136719 150.785156 311.929688 155.578125 313.578125 160.773438 Z M 226.0625 213.730469 L 226.066406 213.804688 L 226.082031 214.078125 C 226.085938 214.105469 226.089844 214.132812 226.09375 214.164062 L 226.082031 214.140625 L 226.140625 215.148438 L 226.191406 216.203125 C 226.21875 216.910156 226.246094 217.621094 226.257812 218.332031 C 226.292969 219.757812 226.304688 221.1875 226.292969 222.617188 C 226.277344 225.480469 226.179688 228.347656 226.007812 231.203125 C 225.65625 236.917969 225 242.605469 223.960938 248.1875 C 223.460938 250.988281 222.804688 253.742188 222.089844 256.46875 C 221.355469 259.1875 220.476562 261.851562 219.5 264.464844 C 217.476562 269.644531 214.925781 274.582031 211.578125 278.792969 L 210.960938 279.589844 L 210.292969 280.335938 C 209.839844 280.828125 209.417969 281.351562 208.945312 281.816406 L 207.515625 283.203125 C 207.394531 283.316406 207.28125 283.433594 207.15625 283.546875 L 206.773438 283.871094 L 206.011719 284.519531 C 203.953125 286.21875 201.714844 287.703125 199.335938 288.914062 C 194.582031 291.335938 189.308594 292.765625 183.945312 293.007812 C 178.589844 293.234375 173.171875 292.316406 168.1875 290.285156 C 163.207031 288.253906 158.671875 285.117188 154.980469 281.144531 C 151.277344 277.175781 148.445312 272.40625 146.746094 267.226562 C 145.894531 264.636719 145.320312 261.953125 145.035156 259.230469 C 144.769531 256.507812 144.777344 253.75 145.085938 251.023438 C 145.394531 248.292969 145.984375 245.589844 146.878906 242.984375 C 147.777344 240.378906 148.960938 237.871094 150.398438 235.507812 C 151.835938 233.148438 153.539062 230.9375 155.46875 228.9375 C 157.394531 226.914062 159.570312 225.199219 161.898438 223.628906 C 164.21875 222.054688 166.753906 220.761719 169.363281 219.625 C 170.660156 219.035156 172.007812 218.554688 173.347656 218.050781 C 174.710938 217.605469 176.066406 217.128906 177.460938 216.753906 C 178.835938 216.339844 180.242188 216.015625 181.648438 215.667969 C 183.0625 215.367188 184.472656 215.039062 185.902344 214.800781 C 187.324219 214.523438 188.765625 214.324219 190.199219 214.09375 C 191.640625 213.902344 193.078125 213.691406 194.53125 213.550781 C 197.425781 213.230469 200.335938 213.015625 203.253906 212.886719 C 206.175781 212.753906 209.097656 212.707031 212.027344 212.726562 C 216.703125 212.753906 221.382812 212.960938 226.046875 213.382812 L 226.050781 213.433594 Z M 295.035156 131.257812 C 289.21875 128.636719 282.804688 127.371094 276.410156 127.453125 C 270.011719 127.519531 263.613281 129.0625 257.839844 131.898438 C 254.953125 133.3125 252.214844 135.046875 249.707031 137.0625 C 249.097656 137.585938 248.472656 138.085938 247.871094 138.628906 L 246.117188 140.3125 L 245.683594 140.738281 L 243.671875 142.984375 C 243.40625 143.289062 243.175781 143.613281 242.925781 143.925781 C 238.917969 148.933594 236.085938 154.589844 233.84375 160.328125 C 232.738281 163.210938 231.800781 166.132812 230.972656 169.074219 C 230.179688 172.019531 229.453125 174.980469 228.882812 177.957031 C 227.71875 183.910156 226.972656 189.902344 226.503906 195.902344 C 226.277344 198.90625 226.121094 201.910156 226.042969 204.917969 C 226.003906 206.425781 225.984375 207.929688 225.984375 209.441406 C 225.984375 210.195312 225.992188 210.953125 226.003906 211.710938 L 226.03125 212.855469 L 226.039062 213.121094 C 215.609375 211.425781 204.980469 210.816406 194.351562 211.324219 C 192.871094 211.382812 191.390625 211.511719 189.910156 211.621094 C 188.433594 211.765625 186.953125 211.910156 185.480469 212.121094 C 184 212.300781 182.53125 212.566406 181.058594 212.804688 C 179.597656 213.097656 178.125 213.363281 176.671875 213.730469 C 175.207031 214.046875 173.765625 214.476562 172.316406 214.878906 C 170.882812 215.339844 169.441406 215.78125 168.03125 216.339844 C 165.207031 217.414062 162.417969 218.671875 159.789062 220.273438 C 159.460938 220.472656 159.117188 220.644531 158.800781 220.863281 L 157.84375 221.511719 C 157.203125 221.945312 156.554688 222.359375 155.957031 222.855469 C 155.347656 223.339844 154.722656 223.804688 154.136719 224.308594 C 153.566406 224.828125 152.96875 225.324219 152.417969 225.867188 C 150.183594 228.007812 148.179688 230.398438 146.453125 232.988281 C 144.726562 235.574219 143.292969 238.363281 142.175781 241.277344 C 141.0625 244.191406 140.277344 247.234375 139.820312 250.332031 C 137.894531 262.714844 141.804688 275.957031 150.265625 285.410156 C 154.457031 290.152344 159.710938 293.992188 165.550781 296.539062 C 171.394531 299.082031 177.808594 300.285156 184.191406 300.136719 C 190.578125 299.96875 196.941406 298.410156 202.683594 295.558594 C 205.5625 294.140625 208.273438 292.394531 210.773438 290.390625 L 211.699219 289.625 L 212.160156 289.238281 C 212.3125 289.109375 212.457031 288.96875 212.605469 288.832031 L 214.363281 287.175781 C 214.945312 286.617188 215.460938 286.003906 216.007812 285.421875 L 216.820312 284.535156 L 217.566406 283.601562 C 219.613281 281.148438 221.308594 278.476562 222.855469 275.753906 L 223.96875 273.683594 C 224.320312 272.988281 224.640625 272.28125 224.980469 271.582031 L 225.480469 270.527344 L 225.929688 269.457031 C 226.226562 268.742188 226.535156 268.03125 226.824219 267.316406 C 227.933594 264.433594 228.914062 261.519531 229.734375 258.574219 C 230.539062 255.625 231.265625 252.664062 231.820312 249.683594 C 232.398438 246.703125 232.871094 243.710938 233.226562 240.710938 C 233.585938 237.710938 233.875 234.707031 234.058594 231.703125 C 234.25 228.699219 234.359375 225.691406 234.382812 222.675781 C 234.398438 221.171875 234.390625 219.664062 234.359375 218.152344 C 234.34375 217.394531 234.324219 216.636719 234.292969 215.878906 L 234.246094 214.730469 L 234.242188 214.683594 C 235.820312 214.972656 237.410156 215.222656 239 215.453125 C 241.917969 215.871094 244.851562 216.207031 247.796875 216.460938 C 253.683594 216.953125 259.613281 217.09375 265.546875 216.839844 C 268.511719 216.6875 271.484375 216.464844 274.441406 216.0625 C 275.179688 215.976562 275.914062 215.839844 276.65625 215.734375 C 277.394531 215.621094 278.132812 215.507812 278.863281 215.359375 L 281.070312 214.933594 L 283.265625 214.433594 C 286.175781 213.707031 289.085938 212.882812 291.902344 211.753906 C 294.71875 210.644531 297.507812 209.375 300.121094 207.75 C 300.449219 207.554688 300.785156 207.367188 301.109375 207.160156 L 303.015625 205.847656 C 303.335938 205.632812 303.652344 205.410156 303.945312 205.160156 L 305.761719 203.703125 C 306.351562 203.210938 306.910156 202.671875 307.488281 202.15625 C 309.738281 200.027344 311.75 197.636719 313.492188 195.0625 C 316.972656 189.90625 319.34375 183.964844 320.324219 177.773438 C 321.3125 171.589844 320.976562 165.15625 319.226562 159.085938 C 317.5 153.015625 314.417969 147.300781 310.246094 142.527344 C 306.089844 137.746094 300.855469 133.859375 295.035156 131.257812 " fill-opacity="1" fill-rule="nonzero"/></g></g></g></g><g transform="matrix(1, 0, 0, 1, 37, 158)"><g clip-path="url(#e3f2254c36)"><g fill="#96616b" fill-opacity="1"><g transform="translate(0.865607, 45.191149)"><g><path d="M 19.890625 -20.515625 C 18.953125 -20.972656 18.082031 -21.304688 17.28125 -21.515625 C 16.476562 -21.722656 15.578125 -21.828125 14.578125 -21.828125 C 13.453125 -21.828125 12.398438 -21.613281 11.421875 -21.1875 C 10.441406 -20.769531 9.597656 -20.164062 8.890625 -19.375 C 8.179688 -18.59375 7.625 -17.640625 7.21875 -16.515625 C 6.8125 -15.390625 6.609375 -14.101562 6.609375 -12.65625 C 6.609375 -11.332031 6.789062 -10.109375 7.15625 -8.984375 C 7.53125 -7.859375 8.054688 -6.867188 8.734375 -6.015625 C 9.410156 -5.160156 10.210938 -4.488281 11.140625 -4 C 12.078125 -3.519531 13.128906 -3.28125 14.296875 -3.28125 C 15.515625 -3.28125 16.554688 -3.410156 17.421875 -3.671875 C 18.296875 -3.929688 19.234375 -4.332031 20.234375 -4.875 L 21.578125 -1.203125 C 20.546875 -0.660156 19.421875 -0.226562 18.203125 0.09375 C 16.984375 0.414062 15.582031 0.578125 14 0.578125 C 12.195312 0.578125 10.570312 0.253906 9.125 -0.390625 C 7.675781 -1.035156 6.4375 -1.9375 5.40625 -3.09375 C 4.375 -4.25 3.578125 -5.628906 3.015625 -7.234375 C 2.453125 -8.847656 2.171875 -10.617188 2.171875 -12.546875 C 2.171875 -14.347656 2.453125 -16.046875 3.015625 -17.640625 C 3.578125 -19.234375 4.390625 -20.625 5.453125 -21.8125 C 6.515625 -23.007812 7.796875 -23.953125 9.296875 -24.640625 C 10.796875 -25.335938 12.476562 -25.6875 14.34375 -25.6875 C 15.789062 -25.6875 17.046875 -25.554688 18.109375 -25.296875 C 19.171875 -25.035156 20.203125 -24.664062 21.203125 -24.1875 Z M 19.890625 -20.515625 "/></g></g></g><g fill="#96616b" fill-opacity="1"><g transform="translate(23.650574, 45.191149)"><g><path d="M 4.484375 11.203125 C 3.523438 11.203125 2.679688 11.101562 1.953125 10.90625 C 1.234375 10.71875 0.660156 10.492188 0.234375 10.234375 L 1.203125 6.609375 C 1.585938 6.835938 2.0625 7.03125 2.625 7.1875 C 3.1875 7.351562 3.84375 7.4375 4.59375 7.4375 C 5.257812 7.4375 5.890625 7.335938 6.484375 7.140625 C 7.085938 6.953125 7.660156 6.613281 8.203125 6.125 C 8.753906 5.644531 9.28125 4.984375 9.78125 4.140625 C 10.28125 3.304688 10.769531 2.265625 11.25 1.015625 L 12.359375 -1.890625 L 10.046875 -1.890625 L 0.234375 -23.953125 L 4.109375 -25.6875 L 13.46875 -4.78125 L 20.765625 -25.5 L 24.765625 -23.953125 L 15.546875 1.25 C 14.835938 3.1875 14.085938 4.789062 13.296875 6.0625 C 12.515625 7.332031 11.671875 8.351562 10.765625 9.125 C 9.867188 9.894531 8.894531 10.429688 7.84375 10.734375 C 6.800781 11.046875 5.679688 11.203125 4.484375 11.203125 Z M 4.484375 11.203125 "/></g></g></g><g fill="#96616b" fill-opacity="1"><g transform="translate(48.897476, 45.191149)"><g><path d="M 19.890625 -20.515625 C 18.953125 -20.972656 18.082031 -21.304688 17.28125 -21.515625 C 16.476562 -21.722656 15.578125 -21.828125 14.578125 -21.828125 C 13.453125 -21.828125 12.398438 -21.613281 11.421875 -21.1875 C 10.441406 -20.769531 9.597656 -20.164062 8.890625 -19.375 C 8.179688 -18.59375 7.625 -17.640625 7.21875 -16.515625 C 6.8125 -15.390625 6.609375 -14.101562 6.609375 -12.65625 C 6.609375 -11.332031 6.789062 -10.109375 7.15625 -8.984375 C 7.53125 -7.859375 8.054688 -6.867188 8.734375 -6.015625 C 9.410156 -5.160156 10.210938 -4.488281 11.140625 -4 C 12.078125 -3.519531 13.128906 -3.28125 14.296875 -3.28125 C 15.515625 -3.28125 16.554688 -3.410156 17.421875 -3.671875 C 18.296875 -3.929688 19.234375 -4.332031 20.234375 -4.875 L 21.578125 -1.203125 C 20.546875 -0.660156 19.421875 -0.226562 18.203125 0.09375 C 16.984375 0.414062 15.582031 0.578125 14 0.578125 C 12.195312 0.578125 10.570312 0.253906 9.125 -0.390625 C 7.675781 -1.035156 6.4375 -1.9375 5.40625 -3.09375 C 4.375 -4.25 3.578125 -5.628906 3.015625 -7.234375 C 2.453125 -8.847656 2.171875 -10.617188 2.171875 -12.546875 C 2.171875 -14.347656 2.453125 -16.046875 3.015625 -17.640625 C 3.578125 -19.234375 4.390625 -20.625 5.453125 -21.8125 C 6.515625 -23.007812 7.796875 -23.953125 9.296875 -24.640625 C 10.796875 -25.335938 12.476562 -25.6875 14.34375 -25.6875 C 15.789062 -25.6875 17.046875 -25.554688 18.109375 -25.296875 C 19.171875 -25.035156 20.203125 -24.664062 21.203125 -24.1875 Z M 19.890625 -20.515625 "/></g></g></g><g fill="#96616b" fill-opacity="1"><g transform="translate(71.682444, 45.191149)"><g><path d="M 7.96875 -8.296875 C 7.96875 -6.566406 8.328125 -5.28125 9.046875 -4.4375 C 9.773438 -3.601562 10.78125 -3.1875 12.0625 -3.1875 C 12.675781 -3.1875 13.269531 -3.257812 13.84375 -3.40625 C 14.425781 -3.550781 14.945312 -3.71875 15.40625 -3.90625 L 16.46875 -0.390625 C 15.882812 -0.128906 15.164062 0.09375 14.3125 0.28125 C 13.457031 0.476562 12.515625 0.578125 11.484375 0.578125 C 10.359375 0.578125 9.320312 0.414062 8.375 0.09375 C 7.425781 -0.226562 6.597656 -0.722656 5.890625 -1.390625 C 5.179688 -2.066406 4.625 -2.9375 4.21875 -4 C 3.820312 -5.0625 3.625 -6.351562 3.625 -7.875 L 3.625 -35.734375 L 7.96875 -35.734375 Z M 7.96875 -8.296875 "/></g></g></g><g fill="#96616b" fill-opacity="1"><g transform="translate(88.384987, 45.191149)"><g><path d="M 6.609375 -10.765625 C 6.898438 -8.410156 7.722656 -6.570312 9.078125 -5.25 C 10.429688 -3.9375 12.21875 -3.28125 14.4375 -3.28125 C 15.882812 -3.28125 17.1875 -3.429688 18.34375 -3.734375 C 19.5 -4.046875 20.609375 -4.441406 21.671875 -4.921875 L 22.6875 -1.203125 C 21.53125 -0.660156 20.226562 -0.226562 18.78125 0.09375 C 17.332031 0.414062 15.707031 0.578125 13.90625 0.578125 C 12.101562 0.578125 10.476562 0.28125 9.03125 -0.3125 C 7.582031 -0.90625 6.347656 -1.753906 5.328125 -2.859375 C 4.316406 -3.972656 3.535156 -5.34375 2.984375 -6.96875 C 2.441406 -8.601562 2.171875 -10.460938 2.171875 -12.546875 C 2.171875 -14.421875 2.441406 -16.160156 2.984375 -17.765625 C 3.535156 -19.378906 4.3125 -20.769531 5.3125 -21.9375 C 6.3125 -23.113281 7.5 -24.03125 8.875 -24.6875 C 10.257812 -25.351562 11.804688 -25.6875 13.515625 -25.6875 C 15.316406 -25.6875 16.894531 -25.378906 18.25 -24.765625 C 19.601562 -24.148438 20.726562 -23.3125 21.625 -22.25 C 22.53125 -21.195312 23.207031 -19.960938 23.65625 -18.546875 C 24.101562 -17.128906 24.328125 -15.628906 24.328125 -14.046875 C 24.328125 -12.921875 24.28125 -11.828125 24.1875 -10.765625 Z M 13.421875 -21.921875 C 11.523438 -21.921875 9.972656 -21.273438 8.765625 -19.984375 C 7.554688 -18.703125 6.820312 -16.804688 6.5625 -14.296875 L 20.328125 -14.296875 C 20.328125 -16.734375 19.710938 -18.613281 18.484375 -19.9375 C 17.265625 -21.257812 15.578125 -21.921875 13.421875 -21.921875 Z M 13.421875 -21.921875 "/></g></g></g></g></g><g transform="matrix(1, 0, 0, 1, 36, 79)"><g clip-path="url(#f3ebf6b4d4)"><g fill="#96616b" fill-opacity="1"><g transform="translate(0.00000386, 78.393022)"><g><path d="M 6.25 -10.015625 C 7.726562 -8.703125 9.59375 -7.644531 11.84375 -6.84375 C 14.101562 -6.039062 16.515625 -5.640625 19.078125 -5.640625 C 22.273438 -5.640625 24.6875 -6.164062 26.3125 -7.21875 C 27.9375 -8.28125 28.75 -9.640625 28.75 -11.296875 C 28.75 -12.148438 28.585938 -12.945312 28.265625 -13.6875 C 27.953125 -14.425781 27.382812 -15.140625 26.5625 -15.828125 C 25.738281 -16.515625 24.613281 -17.1875 23.1875 -17.84375 C 21.757812 -18.5 19.90625 -19.222656 17.625 -20.015625 C 13.40625 -21.441406 10.269531 -23.140625 8.21875 -25.109375 C 6.164062 -27.078125 5.140625 -29.800781 5.140625 -33.28125 C 5.140625 -34.988281 5.519531 -36.582031 6.28125 -38.0625 C 7.050781 -39.550781 8.164062 -40.847656 9.625 -41.953125 C 11.082031 -43.066406 12.847656 -43.9375 14.921875 -44.5625 C 17.003906 -45.195312 19.390625 -45.515625 22.078125 -45.515625 C 24.984375 -45.515625 27.53125 -45.210938 29.71875 -44.609375 C 31.914062 -44.015625 33.898438 -43.257812 35.671875 -42.34375 L 33.53125 -36.015625 C 31.988281 -36.929688 30.234375 -37.671875 28.265625 -38.234375 C 26.304688 -38.804688 24.128906 -39.09375 21.734375 -39.09375 C 18.765625 -39.09375 16.507812 -38.492188 14.96875 -37.296875 C 13.425781 -36.097656 12.65625 -34.785156 12.65625 -33.359375 C 12.65625 -32.679688 12.785156 -32.054688 13.046875 -31.484375 C 13.304688 -30.910156 13.773438 -30.367188 14.453125 -29.859375 C 15.140625 -29.347656 16.050781 -28.832031 17.1875 -28.3125 C 18.332031 -27.800781 19.757812 -27.257812 21.46875 -26.6875 C 24.269531 -25.71875 26.640625 -24.734375 28.578125 -23.734375 C 30.515625 -22.742188 32.082031 -21.648438 33.28125 -20.453125 C 34.476562 -19.253906 35.332031 -17.953125 35.84375 -16.546875 C 36.351562 -15.148438 36.609375 -13.597656 36.609375 -11.890625 C 36.609375 -9.890625 36.179688 -8.09375 35.328125 -6.5 C 34.472656 -4.90625 33.273438 -3.550781 31.734375 -2.4375 C 30.191406 -1.320312 28.320312 -0.46875 26.125 0.125 C 23.9375 0.726562 21.503906 1.03125 18.828125 1.03125 C 15.398438 1.03125 12.34375 0.601562 9.65625 -0.25 C 6.976562 -1.113281 4.757812 -2.226562 3 -3.59375 Z M 6.25 -10.015625 "/></g></g></g><g fill="#96616b" fill-opacity="1"><g transform="translate(40.032994, 78.393022)"><g><path d="M 11.71875 -19.078125 C 12.226562 -14.910156 13.679688 -11.65625 16.078125 -9.3125 C 18.472656 -6.976562 21.640625 -5.8125 25.578125 -5.8125 C 28.140625 -5.8125 30.445312 -6.082031 32.5 -6.625 C 34.5625 -7.164062 36.53125 -7.863281 38.40625 -8.71875 L 40.203125 -2.140625 C 38.148438 -1.171875 35.835938 -0.398438 33.265625 0.171875 C 30.703125 0.742188 27.828125 1.03125 24.640625 1.03125 C 21.441406 1.03125 18.554688 0.503906 15.984375 -0.546875 C 13.421875 -1.609375 11.242188 -3.125 9.453125 -5.09375 C 7.660156 -7.0625 6.273438 -9.484375 5.296875 -12.359375 C 4.328125 -15.242188 3.84375 -18.539062 3.84375 -22.25 C 3.84375 -25.550781 4.328125 -28.628906 5.296875 -31.484375 C 6.273438 -34.335938 7.644531 -36.800781 9.40625 -38.875 C 11.175781 -40.957031 13.285156 -42.582031 15.734375 -43.75 C 18.191406 -44.925781 20.929688 -45.515625 23.953125 -45.515625 C 27.148438 -45.515625 29.945312 -44.972656 32.34375 -43.890625 C 34.738281 -42.804688 36.734375 -41.320312 38.328125 -39.4375 C 39.921875 -37.550781 41.113281 -35.351562 41.90625 -32.84375 C 42.707031 -30.34375 43.109375 -27.691406 43.109375 -24.890625 C 43.109375 -22.898438 43.023438 -20.960938 42.859375 -19.078125 Z M 23.78125 -38.84375 C 20.414062 -38.84375 17.660156 -37.703125 15.515625 -35.421875 C 13.378906 -33.140625 12.085938 -29.773438 11.640625 -25.328125 L 36.015625 -25.328125 C 36.015625 -29.660156 34.929688 -32.992188 32.765625 -35.328125 C 30.597656 -37.671875 27.601562 -38.84375 23.78125 -38.84375 Z M 23.78125 -38.84375 "/></g></g></g><g fill="#96616b" fill-opacity="1"><g transform="translate(86.567065, 78.393022)"><g><path d="M 11.71875 -19.078125 C 12.226562 -14.910156 13.679688 -11.65625 16.078125 -9.3125 C 18.472656 -6.976562 21.640625 -5.8125 25.578125 -5.8125 C 28.140625 -5.8125 30.445312 -6.082031 32.5 -6.625 C 34.5625 -7.164062 36.53125 -7.863281 38.40625 -8.71875 L 40.203125 -2.140625 C 38.148438 -1.171875 35.835938 -0.398438 33.265625 0.171875 C 30.703125 0.742188 27.828125 1.03125 24.640625 1.03125 C 21.441406 1.03125 18.554688 0.503906 15.984375 -0.546875 C 13.421875 -1.609375 11.242188 -3.125 9.453125 -5.09375 C 7.660156 -7.0625 6.273438 -9.484375 5.296875 -12.359375 C 4.328125 -15.242188 3.84375 -18.539062 3.84375 -22.25 C 3.84375 -25.550781 4.328125 -28.628906 5.296875 -31.484375 C 6.273438 -34.335938 7.644531 -36.800781 9.40625 -38.875 C 11.175781 -40.957031 13.285156 -42.582031 15.734375 -43.75 C 18.191406 -44.925781 20.929688 -45.515625 23.953125 -45.515625 C 27.148438 -45.515625 29.945312 -44.972656 32.34375 -43.890625 C 34.738281 -42.804688 36.734375 -41.320312 38.328125 -39.4375 C 39.921875 -37.550781 41.113281 -35.351562 41.90625 -32.84375 C 42.707031 -30.34375 43.109375 -27.691406 43.109375 -24.890625 C 43.109375 -22.898438 43.023438 -20.960938 42.859375 -19.078125 Z M 23.78125 -38.84375 C 20.414062 -38.84375 17.660156 -37.703125 15.515625 -35.421875 C 13.378906 -33.140625 12.085938 -29.773438 11.640625 -25.328125 L 36.015625 -25.328125 C 36.015625 -29.660156 34.929688 -32.992188 32.765625 -35.328125 C 30.597656 -37.671875 27.601562 -38.84375 23.78125 -38.84375 Z M 23.78125 -38.84375 "/></g></g></g><g fill="#96616b" fill-opacity="1"><g transform="translate(133.101137, 78.393022)"><g><path d="M 23.703125 1.03125 C 20.960938 1.03125 18.378906 0.488281 15.953125 -0.59375 C 13.523438 -1.675781 11.410156 -3.21875 9.609375 -5.21875 C 7.816406 -7.21875 6.40625 -9.628906 5.375 -12.453125 C 4.351562 -15.273438 3.84375 -18.453125 3.84375 -21.984375 C 3.84375 -25.347656 4.367188 -28.46875 5.421875 -31.34375 C 6.484375 -34.226562 7.910156 -36.710938 9.703125 -38.796875 C 11.503906 -40.878906 13.601562 -42.519531 16 -43.71875 C 18.394531 -44.914062 20.929688 -45.515625 23.609375 -45.515625 C 26.578125 -45.515625 29.128906 -44.914062 31.265625 -43.71875 C 33.398438 -42.519531 35.066406 -41.289062 36.265625 -40.03125 L 36.265625 -63.3125 L 43.96875 -63.3125 L 43.96875 -10.78125 C 43.96875 -8.613281 44.492188 -7.203125 45.546875 -6.546875 C 46.609375 -5.890625 47.765625 -5.5625 49.015625 -5.5625 L 47.390625 0.421875 C 41.972656 0.421875 38.664062 -1.742188 37.46875 -6.078125 C 36.15625 -4.253906 34.382812 -2.613281 32.15625 -1.15625 C 29.9375 0.300781 27.117188 1.03125 23.703125 1.03125 Z M 25.40625 -5.8125 C 27.519531 -5.8125 29.53125 -6.3125 31.4375 -7.3125 C 33.34375 -8.3125 34.953125 -9.609375 36.265625 -11.203125 L 36.265625 -33.28125 C 35.179688 -34.644531 33.6875 -35.910156 31.78125 -37.078125 C 29.875 -38.253906 27.722656 -38.84375 25.328125 -38.84375 C 23.273438 -38.84375 21.40625 -38.410156 19.71875 -37.546875 C 18.03125 -36.691406 16.585938 -35.523438 15.390625 -34.046875 C 14.203125 -32.566406 13.289062 -30.8125 12.65625 -28.78125 C 12.03125 -26.757812 11.71875 -24.582031 11.71875 -22.25 C 11.71875 -19.851562 12.054688 -17.65625 12.734375 -15.65625 C 13.421875 -13.65625 14.378906 -11.925781 15.609375 -10.46875 C 16.835938 -9.019531 18.289062 -7.878906 19.96875 -7.046875 C 21.65625 -6.222656 23.46875 -5.8125 25.40625 -5.8125 Z M 25.40625 -5.8125 "/></g></g></g></g></g><g transform="matrix(1, 0, 0, 1, 219, 82)"><g clip-path="url(#3960049c3d)"><g fill="#96616b" fill-opacity="1"><g transform="translate(0.979633, 17.023259)"><g><path d="M 8.03125 0.21875 C 7.03125 0.21875 6.140625 0.0546875 5.359375 -0.265625 C 4.585938 -0.597656 3.9375 -1.050781 3.40625 -1.625 C 2.875 -2.195312 2.472656 -2.878906 2.203125 -3.671875 C 1.941406 -4.460938 1.8125 -5.328125 1.8125 -6.265625 C 1.8125 -7.160156 1.945312 -8 2.21875 -8.78125 C 2.5 -9.570312 2.90625 -10.257812 3.4375 -10.84375 C 3.96875 -11.425781 4.617188 -11.882812 5.390625 -12.21875 C 6.171875 -12.5625 7.054688 -12.734375 8.046875 -12.734375 C 9.046875 -12.734375 9.9375 -12.566406 10.71875 -12.234375 C 11.5 -11.910156 12.148438 -11.460938 12.671875 -10.890625 C 13.203125 -10.316406 13.601562 -9.632812 13.875 -8.84375 C 14.15625 -8.050781 14.296875 -7.191406 14.296875 -6.265625 C 14.296875 -5.367188 14.15625 -4.523438 13.875 -3.734375 C 13.59375 -2.953125 13.179688 -2.269531 12.640625 -1.6875 C 12.109375 -1.101562 11.453125 -0.640625 10.671875 -0.296875 C 9.898438 0.046875 9.019531 0.21875 8.03125 0.21875 Z M 8.046875 -0.90625 C 8.847656 -0.90625 9.554688 -1.035156 10.171875 -1.296875 C 10.785156 -1.566406 11.300781 -1.9375 11.71875 -2.40625 C 12.132812 -2.882812 12.445312 -3.453125 12.65625 -4.109375 C 12.875 -4.765625 12.984375 -5.484375 12.984375 -6.265625 C 12.984375 -7.046875 12.875 -7.757812 12.65625 -8.40625 C 12.445312 -9.0625 12.132812 -9.628906 11.71875 -10.109375 C 11.300781 -10.585938 10.785156 -10.957031 10.171875 -11.21875 C 9.554688 -11.476562 8.847656 -11.609375 8.046875 -11.609375 C 7.253906 -11.609375 6.550781 -11.472656 5.9375 -11.203125 C 5.320312 -10.941406 4.800781 -10.570312 4.375 -10.09375 C 3.957031 -9.625 3.640625 -9.0625 3.421875 -8.40625 C 3.210938 -7.75 3.109375 -7.035156 3.109375 -6.265625 C 3.109375 -5.472656 3.210938 -4.75 3.421875 -4.09375 C 3.640625 -3.445312 3.957031 -2.882812 4.375 -2.40625 C 4.800781 -1.9375 5.320312 -1.566406 5.9375 -1.296875 C 6.550781 -1.035156 7.253906 -0.90625 8.046875 -0.90625 Z M 9.953125 -2.375 L 8.984375 -4.53125 C 8.609375 -5.3125 7.972656 -5.707031 7.078125 -5.71875 L 7.078125 -2.5625 L 5.671875 -2.5625 L 5.671875 -10.125 C 5.992188 -10.164062 6.316406 -10.195312 6.640625 -10.21875 C 6.972656 -10.238281 7.363281 -10.25 7.8125 -10.25 C 8.757812 -10.25 9.5 -10.070312 10.03125 -9.71875 C 10.5625 -9.375 10.828125 -8.84375 10.828125 -8.125 C 10.828125 -7.625 10.6875 -7.222656 10.40625 -6.921875 C 10.132812 -6.617188 9.734375 -6.382812 9.203125 -6.21875 C 9.472656 -6.09375 9.695312 -5.921875 9.875 -5.703125 C 10.0625 -5.492188 10.238281 -5.210938 10.40625 -4.859375 L 11.265625 -2.984375 Z M 7.984375 -8.984375 C 7.816406 -8.984375 7.65625 -8.976562 7.5 -8.96875 C 7.351562 -8.96875 7.210938 -8.960938 7.078125 -8.953125 L 7.078125 -7 L 7.984375 -7 C 8.410156 -7 8.753906 -7.082031 9.015625 -7.25 C 9.285156 -7.425781 9.421875 -7.6875 9.421875 -8.03125 C 9.421875 -8.300781 9.296875 -8.523438 9.046875 -8.703125 C 8.796875 -8.890625 8.441406 -8.984375 7.984375 -8.984375 Z M 7.984375 -8.984375 "/></g></g></g></g></g></svg>